<svg width="157" height="36" viewBox="0 0 157 36" fill="none" xmlns="http://www.w3.org/2000/svg">
<rect x="0.5" y="0.5" width="156" height="35" rx="3.5" fill="#02B534"/>
<rect x="0.5" y="0.5" width="156" height="35" rx="3.5" stroke="#EBEBEB"/>
<path d="M13.912 21.12C13.264 21.12 12.692 20.972 12.196 20.676C11.708 20.372 11.324 19.968 11.044 19.464C10.764 18.96 10.624 18.396 10.624 17.772C10.624 17.148 10.764 16.584 11.044 16.08C11.332 15.576 11.724 15.18 12.22 14.892C12.716 14.596 13.28 14.448 13.912 14.448C14.672 14.448 15.3 14.628 15.796 14.988C16.292 15.348 16.632 15.82 16.816 16.404L15.976 16.836C15.8 16.34 15.544 15.968 15.208 15.72C14.872 15.464 14.432 15.336 13.888 15.336C13.488 15.336 13.124 15.436 12.796 15.636C12.468 15.836 12.204 16.12 12.004 16.488C11.812 16.848 11.716 17.272 11.716 17.76C11.716 18.048 11.752 18.324 11.824 18.588C12.144 18.34 12.504 18.144 12.904 18C13.304 17.848 13.704 17.772 14.104 17.772C14.672 17.772 15.168 17.856 15.592 18.024C16.016 18.184 16.456 18.448 16.912 18.816C16.76 19.52 16.42 20.08 15.892 20.496C15.372 20.912 14.712 21.12 13.912 21.12ZM14.14 18.648C13.772 18.648 13.42 18.716 13.084 18.852C12.756 18.988 12.456 19.164 12.184 19.38C12.36 19.636 12.588 19.844 12.868 20.004C13.148 20.156 13.484 20.232 13.876 20.232C14.356 20.232 14.748 20.144 15.052 19.968C15.356 19.784 15.596 19.512 15.772 19.152C15.58 19.016 15.356 18.9 15.1 18.804C14.852 18.7 14.532 18.648 14.14 18.648ZM21.246 21.12C20.414 21.12 19.718 20.96 19.158 20.64C18.606 20.32 18.222 19.88 18.006 19.32L18.846 18.888C19.054 19.368 19.37 19.716 19.794 19.932C20.226 20.148 20.714 20.256 21.258 20.256C21.65 20.256 22.018 20.224 22.362 20.16C22.706 20.096 22.982 19.984 23.19 19.824C23.406 19.656 23.514 19.42 23.514 19.116C23.514 18.836 23.378 18.596 23.106 18.396C22.842 18.188 22.434 18.084 21.882 18.084H21.714V17.22H21.786C22.194 17.22 22.55 17.132 22.854 16.956C23.158 16.78 23.31 16.54 23.31 16.236C23.31 15.972 23.21 15.776 23.01 15.648C22.818 15.512 22.57 15.424 22.266 15.384C21.97 15.336 21.662 15.312 21.342 15.312C21.03 15.312 20.722 15.34 20.418 15.396C20.122 15.452 19.874 15.54 19.674 15.66C19.482 15.78 19.386 15.944 19.386 16.152C19.386 16.304 19.438 16.432 19.542 16.536L18.714 16.992C18.634 16.872 18.558 16.744 18.486 16.608C18.422 16.464 18.39 16.3 18.39 16.116C18.39 15.62 18.654 15.22 19.182 14.916C19.718 14.604 20.438 14.448 21.342 14.448C22.334 14.448 23.078 14.596 23.574 14.892C24.07 15.188 24.318 15.608 24.318 16.152C24.318 16.544 24.198 16.848 23.958 17.064C23.726 17.28 23.414 17.444 23.022 17.556V17.616C23.582 17.768 23.978 17.984 24.21 18.264C24.45 18.536 24.57 18.864 24.57 19.248C24.57 19.848 24.286 20.312 23.718 20.64C23.15 20.96 22.326 21.12 21.246 21.12ZM26.1858 21V11.64C26.1858 11.072 26.0698 10.62 25.8378 10.284C25.6058 9.94 25.2417 9.768 24.7457 9.768C24.3137 9.768 23.9657 9.916 23.7017 10.212C23.4377 10.508 23.3057 10.956 23.3057 11.556V11.748H22.2857V11.58C22.2857 11.044 22.3897 10.584 22.5977 10.2C22.7977 9.808 23.0857 9.504 23.4617 9.288C23.8297 9.072 24.2577 8.964 24.7457 8.964C25.5298 8.964 26.1338 9.216 26.5578 9.72C26.9898 10.224 27.2058 10.92 27.2058 11.808V21H26.1858ZM32.385 21.12C31.665 21.12 31.049 20.976 30.537 20.688C30.025 20.4 29.633 20.004 29.361 19.5C29.089 18.988 28.953 18.412 28.953 17.772C28.953 17.14 29.093 16.576 29.373 16.08C29.661 15.576 30.061 15.18 30.573 14.892C31.085 14.596 31.689 14.448 32.385 14.448C32.865 14.448 33.309 14.532 33.717 14.7C34.125 14.86 34.477 15.088 34.773 15.384C35.077 15.672 35.297 16.012 35.433 16.404L34.593 16.836C34.385 16.34 34.085 15.968 33.693 15.72C33.301 15.464 32.857 15.336 32.361 15.336C31.889 15.336 31.477 15.44 31.125 15.648C30.781 15.848 30.513 16.132 30.321 16.5C30.137 16.86 30.045 17.28 30.045 17.76C30.045 18.232 30.145 18.656 30.345 19.032C30.545 19.408 30.817 19.704 31.161 19.92C31.513 20.128 31.913 20.232 32.361 20.232C32.857 20.232 33.301 20.108 33.693 19.86C34.085 19.604 34.385 19.228 34.593 18.732L35.433 19.164C35.297 19.548 35.077 19.888 34.773 20.184C34.477 20.48 34.125 20.712 33.717 20.88C33.309 21.04 32.865 21.12 32.385 21.12ZM31.5519 13.488C31.1439 13.264 30.8119 12.956 30.5559 12.564C30.2999 12.164 30.1719 11.7 30.1719 11.172C30.1719 10.716 30.2679 10.324 30.4599 9.996C30.6519 9.668 30.9119 9.416 31.2399 9.24C31.5679 9.064 31.9399 8.976 32.3559 8.976C32.7639 8.976 33.1319 9.06 33.4599 9.228C33.7799 9.396 34.0319 9.636 34.2159 9.948L33.5319 10.476C33.4039 10.26 33.2399 10.092 33.0399 9.972C32.8399 9.844 32.6159 9.78 32.3679 9.78C31.9759 9.78 31.6719 9.916 31.4559 10.188C31.2399 10.46 31.1319 10.788 31.1319 11.172C31.1319 11.588 31.2319 11.936 31.4319 12.216C31.6239 12.488 31.8399 12.704 32.0799 12.864L31.5519 13.488ZM38.1617 17.112C37.7697 17.112 37.4537 17.004 37.2137 16.788C36.9737 16.564 36.8537 16.248 36.8537 15.84C36.8537 15.44 36.9737 15.128 37.2137 14.904C37.4537 14.68 37.7697 14.568 38.1617 14.568C38.5457 14.568 38.8617 14.68 39.1097 14.904C39.3657 15.128 39.4937 15.436 39.4937 15.828C39.4937 16.236 39.3657 16.552 39.1097 16.776C38.8617 17 38.5457 17.112 38.1617 17.112ZM38.1737 16.476C38.3577 16.476 38.5097 16.42 38.6297 16.308C38.7497 16.196 38.8097 16.04 38.8097 15.84C38.8097 15.64 38.7497 15.484 38.6297 15.372C38.5097 15.26 38.3577 15.204 38.1737 15.204C37.9897 15.204 37.8377 15.26 37.7177 15.372C37.5977 15.484 37.5377 15.64 37.5377 15.84C37.5377 16.264 37.7497 16.476 38.1737 16.476ZM38.1617 21.132C37.7697 21.132 37.4537 21.024 37.2137 20.808C36.9737 20.584 36.8537 20.268 36.8537 19.86C36.8537 19.46 36.9737 19.148 37.2137 18.924C37.4537 18.7 37.7697 18.588 38.1617 18.588C38.5457 18.588 38.8617 18.7 39.1097 18.924C39.3657 19.148 39.4937 19.456 39.4937 19.848C39.4937 20.256 39.3657 20.572 39.1097 20.796C38.8617 21.02 38.5457 21.132 38.1617 21.132ZM38.1737 20.496C38.3577 20.496 38.5097 20.44 38.6297 20.328C38.7497 20.216 38.8097 20.06 38.8097 19.86C38.8097 19.66 38.7497 19.504 38.6297 19.392C38.5097 19.28 38.3577 19.224 38.1737 19.224C37.9897 19.224 37.8377 19.28 37.7177 19.392C37.5977 19.504 37.5377 19.66 37.5377 19.86C37.5377 20.06 37.5897 20.216 37.6937 20.328C37.8057 20.44 37.9657 20.496 38.1737 20.496ZM43.9541 21.12C43.3621 21.12 42.8341 20.984 42.3701 20.712C41.9141 20.432 41.5541 20.044 41.2901 19.548C41.0341 19.044 40.9061 18.456 40.9061 17.784C40.9061 17.16 41.0381 16.596 41.3021 16.092C41.5661 15.588 41.9381 15.188 42.4181 14.892C42.9061 14.596 43.4861 14.448 44.1581 14.448C44.7661 14.448 45.2861 14.584 45.7181 14.856C46.1581 15.12 46.5221 15.484 46.8101 15.948C47.0981 16.412 47.3181 16.936 47.4701 17.52C47.7021 18.392 48.0101 19.06 48.3941 19.524C48.7861 19.988 49.3101 20.22 49.9661 20.22C50.3501 20.22 50.6941 20.12 50.9981 19.92C51.3101 19.72 51.5541 19.436 51.7301 19.068C51.9141 18.692 52.0061 18.256 52.0061 17.76C52.0061 17.008 51.8101 16.416 51.4181 15.984C51.0341 15.552 50.5221 15.336 49.8821 15.336C49.4501 15.336 49.0821 15.408 48.7781 15.552L48.3941 14.76C48.6181 14.648 48.8581 14.568 49.1141 14.52C49.3781 14.472 49.6901 14.448 50.0501 14.448C50.6421 14.448 51.1661 14.584 51.6221 14.856C52.0781 15.128 52.4381 15.516 52.7021 16.02C52.9661 16.516 53.0981 17.104 53.0981 17.784C53.0981 18.416 52.9621 18.984 52.6901 19.488C52.4261 19.992 52.0541 20.392 51.5741 20.688C51.1021 20.976 50.5541 21.12 49.9301 21.12C49.0021 21.12 48.2781 20.856 47.7581 20.328C47.2381 19.792 46.8301 19.036 46.5341 18.06C46.2381 17.084 45.8981 16.388 45.5141 15.972C45.1301 15.556 44.6581 15.348 44.0981 15.348C43.4661 15.348 42.9581 15.576 42.5741 16.032C42.1901 16.48 41.9981 17.072 41.9981 17.808C41.9981 18.544 42.1901 19.132 42.5741 19.572C42.9661 20.012 43.4821 20.232 44.1221 20.232C44.5621 20.232 44.9301 20.16 45.2261 20.016L45.6101 20.808C45.3861 20.92 45.1421 21 44.8781 21.048C44.6221 21.096 44.3141 21.12 43.9541 21.12ZM49.4004 26.604V21.588H50.4684V25.788H51.9684V26.604H49.4004ZM57.5858 21.12C56.7538 21.12 56.0578 20.96 55.4978 20.64C54.9458 20.32 54.5618 19.88 54.3458 19.32L55.1858 18.888C55.3938 19.368 55.7098 19.716 56.1338 19.932C56.5658 20.148 57.0538 20.256 57.5978 20.256C57.9898 20.256 58.3578 20.224 58.7018 20.16C59.0458 20.096 59.3218 19.984 59.5298 19.824C59.7458 19.656 59.8538 19.42 59.8538 19.116C59.8538 18.836 59.7178 18.596 59.4458 18.396C59.1818 18.188 58.7738 18.084 58.2218 18.084H58.0538V17.22H58.1258C58.5338 17.22 58.8898 17.132 59.1938 16.956C59.4978 16.78 59.6498 16.54 59.6498 16.236C59.6498 15.972 59.5498 15.776 59.3498 15.648C59.1578 15.512 58.9098 15.424 58.6058 15.384C58.3098 15.336 58.0018 15.312 57.6818 15.312C57.3698 15.312 57.0618 15.34 56.7578 15.396C56.4618 15.452 56.2138 15.54 56.0138 15.66C55.8218 15.78 55.7258 15.944 55.7258 16.152C55.7258 16.304 55.7778 16.432 55.8818 16.536L55.0538 16.992C54.9738 16.872 54.8978 16.744 54.8258 16.608C54.7618 16.464 54.7298 16.3 54.7298 16.116C54.7298 15.62 54.9938 15.22 55.5218 14.916C56.0578 14.604 56.7778 14.448 57.6818 14.448C58.6738 14.448 59.4178 14.596 59.9138 14.892C60.4098 15.188 60.6578 15.608 60.6578 16.152C60.6578 16.544 60.5378 16.848 60.2978 17.064C60.0658 17.28 59.7538 17.444 59.3618 17.556V17.616C59.9218 17.768 60.3178 17.984 60.5498 18.264C60.7898 18.536 60.9098 18.864 60.9098 19.248C60.9098 19.848 60.6258 20.312 60.0578 20.64C59.4898 20.96 58.6658 21.12 57.5858 21.12ZM56.8996 13.488C56.4916 13.264 56.1596 12.956 55.9036 12.564C55.6476 12.164 55.5196 11.7 55.5196 11.172C55.5196 10.716 55.6156 10.324 55.8076 9.996C55.9996 9.668 56.2596 9.416 56.5876 9.24C56.9156 9.064 57.2876 8.976 57.7036 8.976C58.1116 8.976 58.4796 9.06 58.8076 9.228C59.1276 9.396 59.3796 9.636 59.5636 9.948L58.8796 10.476C58.7516 10.26 58.5876 10.092 58.3876 9.972C58.1876 9.844 57.9636 9.78 57.7156 9.78C57.3236 9.78 57.0196 9.916 56.8036 10.188C56.5876 10.46 56.4796 10.788 56.4796 11.172C56.4796 11.588 56.5796 11.936 56.7796 12.216C56.9716 12.488 57.1876 12.704 57.4276 12.864L56.8996 13.488ZM70.404 11.904H71.544V23.784H70.404V11.904ZM80.9465 26.592C79.3065 26.592 78.4865 25.736 78.4865 24.024V11.532C78.4865 9.82 79.3065 8.964 80.9465 8.964H84.8105C86.4585 8.964 87.2825 9.82 87.2825 11.532V11.88H86.2145V11.328C86.2145 10.856 86.1025 10.488 85.8785 10.224C85.6625 9.96 85.3265 9.828 84.8705 9.828H80.8985C80.4345 9.828 80.0945 9.96 79.8785 10.224C79.6705 10.488 79.5665 10.856 79.5665 11.328V24.216C79.5665 24.696 79.6705 25.068 79.8785 25.332C80.0945 25.596 80.4345 25.728 80.8985 25.728H84.8705C85.3265 25.728 85.6625 25.596 85.8785 25.332C86.1025 25.068 86.2145 24.696 86.2145 24.216V19.164H87.2825V24.024C87.2825 25.736 86.4585 26.592 84.8105 26.592H80.9465ZM84.1927 21.12C83.5367 21.12 82.9527 20.972 82.4407 20.676C81.9287 20.38 81.5247 19.972 81.2287 19.452C80.9407 18.932 80.7967 18.336 80.7967 17.664C80.7967 17 80.9367 16.384 81.2167 15.816C81.4967 15.24 81.8727 14.784 82.3447 14.448L82.9567 15.216C82.6127 15.496 82.3487 15.836 82.1647 16.236C81.9807 16.628 81.8887 17.096 81.8887 17.64C81.8887 17.928 81.9207 18.2 81.9847 18.456C82.2647 18.2 82.5847 18 82.9447 17.856C83.3047 17.712 83.7167 17.64 84.1807 17.64C84.6367 17.64 85.0447 17.712 85.4047 17.856C85.7727 18 86.1007 18.204 86.3887 18.468C86.4527 18.212 86.4847 17.936 86.4847 17.64C86.4847 17.096 86.3847 16.628 86.1847 16.236C85.9927 15.836 85.7087 15.496 85.3327 15.216L85.9327 14.448C86.2687 14.664 86.5607 14.944 86.8087 15.288C87.0567 15.624 87.2487 15.996 87.3847 16.404C87.5207 16.812 87.5887 17.232 87.5887 17.664C87.5887 18.344 87.4407 18.944 87.1447 19.464C86.8487 19.984 86.4447 20.392 85.9327 20.688C85.4207 20.976 84.8407 21.12 84.1927 21.12ZM84.1807 18.492C83.4687 18.492 82.8487 18.752 82.3207 19.272C82.5207 19.576 82.7807 19.812 83.1007 19.98C83.4207 20.148 83.7847 20.232 84.1927 20.232C84.6007 20.232 84.9607 20.148 85.2727 19.98C85.5927 19.812 85.8527 19.576 86.0527 19.272C85.8127 19.016 85.5327 18.824 85.2127 18.696C84.8927 18.56 84.5487 18.492 84.1807 18.492ZM91.4501 26.604V21.12H91.0421C90.2021 21.12 89.5941 20.96 89.2181 20.64C88.8421 20.312 88.6541 19.904 88.6541 19.416C88.6541 19.088 88.7341 18.804 88.8941 18.564C89.0621 18.316 89.2821 18.124 89.5541 17.988C89.8341 17.852 90.1381 17.784 90.4661 17.784C91.1221 17.784 91.6101 17.988 91.9301 18.396C92.2501 18.796 92.4381 19.408 92.4941 20.232C92.8621 20.2 93.1461 20.104 93.3461 19.944C93.5461 19.784 93.6461 19.532 93.6461 19.188C93.6461 18.884 93.4821 18.628 93.1541 18.42C92.8261 18.212 92.3581 18.004 91.7501 17.796C91.1501 17.588 90.7181 17.352 90.4541 17.088C90.1981 16.824 90.0701 16.488 90.0701 16.08C90.0701 15.768 90.1581 15.492 90.3341 15.252C90.5101 15.004 90.7421 14.808 91.0301 14.664C91.3181 14.52 91.6301 14.448 91.9661 14.448C92.3341 14.448 92.6381 14.484 92.8781 14.556C93.1261 14.62 93.3461 14.72 93.5381 14.856C93.7381 14.984 93.9461 15.152 94.1621 15.36L93.5381 16.032C93.2741 15.768 93.0341 15.584 92.8181 15.48C92.6021 15.368 92.3341 15.312 92.0141 15.312C91.7581 15.312 91.5381 15.38 91.3541 15.516C91.1701 15.652 91.0781 15.824 91.0781 16.032C91.0781 16.28 91.1981 16.48 91.4381 16.632C91.6861 16.776 92.0621 16.932 92.5661 17.1C93.0221 17.252 93.4061 17.416 93.7181 17.592C94.0301 17.76 94.2661 17.968 94.4261 18.216C94.5861 18.464 94.6661 18.78 94.6661 19.164C94.6661 19.772 94.4661 20.232 94.0661 20.544C93.6661 20.856 93.1501 21.04 92.5181 21.096V26.604H91.4501ZM91.0181 20.244H91.4501V20.232C91.4501 19.68 91.3461 19.284 91.1381 19.044C90.9381 18.796 90.6861 18.672 90.3821 18.672C90.1821 18.672 89.9981 18.732 89.8301 18.852C89.6701 18.972 89.5901 19.164 89.5901 19.428C89.5901 19.676 89.7101 19.876 89.9501 20.028C90.1981 20.172 90.5541 20.244 91.0181 20.244ZM91.1535 13.488C90.7455 13.264 90.4135 12.956 90.1575 12.564C89.9015 12.164 89.7735 11.7 89.7735 11.172C89.7735 10.716 89.8695 10.324 90.0615 9.996C90.2535 9.668 90.5135 9.416 90.8415 9.24C91.1695 9.064 91.5415 8.976 91.9575 8.976C92.3655 8.976 92.7335 9.06 93.0615 9.228C93.3815 9.396 93.6335 9.636 93.8175 9.948L93.1335 10.476C93.0055 10.26 92.8415 10.092 92.6415 9.972C92.4415 9.844 92.2175 9.78 91.9695 9.78C91.5775 9.78 91.2735 9.916 91.0575 10.188C90.8415 10.46 90.7335 10.788 90.7335 11.172C90.7335 11.588 90.8335 11.936 91.0335 12.216C91.2255 12.488 91.4415 12.704 91.6815 12.864L91.1535 13.488ZM99.1458 21.12C98.4898 21.12 97.9058 20.972 97.3938 20.676C96.8818 20.38 96.4778 19.972 96.1818 19.452C95.8938 18.932 95.7498 18.336 95.7498 17.664C95.7498 17 95.8898 16.384 96.1698 15.816C96.4498 15.24 96.8258 14.784 97.2978 14.448L97.9098 15.216C97.5658 15.496 97.3018 15.836 97.1178 16.236C96.9338 16.628 96.8418 17.096 96.8418 17.64C96.8418 17.928 96.8738 18.2 96.9378 18.456C97.2178 18.2 97.5378 18 97.8978 17.856C98.2578 17.712 98.6698 17.64 99.1338 17.64C99.5898 17.64 99.9978 17.712 100.358 17.856C100.726 18 101.054 18.204 101.342 18.468C101.406 18.212 101.438 17.936 101.438 17.64C101.438 17.096 101.338 16.628 101.138 16.236C100.946 15.836 100.662 15.496 100.286 15.216L100.886 14.448C101.222 14.664 101.514 14.944 101.762 15.288C102.01 15.624 102.202 15.996 102.338 16.404C102.474 16.812 102.542 17.232 102.542 17.664C102.542 18.344 102.394 18.944 102.098 19.464C101.802 19.984 101.398 20.392 100.886 20.688C100.374 20.976 99.7938 21.12 99.1458 21.12ZM99.1338 18.492C98.4218 18.492 97.8018 18.752 97.2738 19.272C97.4738 19.576 97.7338 19.812 98.0538 19.98C98.3738 20.148 98.7378 20.232 99.1458 20.232C99.5538 20.232 99.9138 20.148 100.226 19.98C100.546 19.812 100.806 19.576 101.006 19.272C100.766 19.016 100.486 18.824 100.166 18.696C99.8458 18.56 99.5018 18.492 99.1338 18.492ZM104.951 21.12C104.591 21.12 104.279 21.096 104.015 21.048C103.759 21 103.519 20.92 103.295 20.808L103.679 20.016C103.983 20.16 104.351 20.232 104.783 20.232C105.447 20.232 105.967 20.008 106.343 19.56C106.719 19.104 106.907 18.5 106.907 17.748C106.907 17.276 106.811 16.86 106.619 16.5C106.427 16.132 106.151 15.844 105.791 15.636C105.439 15.428 105.023 15.324 104.543 15.324C104.079 15.324 103.623 15.44 103.175 15.672C102.719 15.896 102.275 16.26 101.843 16.764L101.219 16.104C101.651 15.6 102.131 15.2 102.659 14.904C103.187 14.6 103.811 14.448 104.531 14.448C105.203 14.448 105.799 14.596 106.319 14.892C106.847 15.18 107.259 15.572 107.555 16.068C107.859 16.564 108.011 17.128 108.011 17.76C108.011 18.408 107.875 18.988 107.603 19.5C107.331 20.004 106.963 20.4 106.499 20.688C106.043 20.976 105.527 21.12 104.951 21.12ZM112.308 21.12C111.828 21.12 111.384 21.04 110.976 20.88C110.568 20.712 110.216 20.48 109.92 20.184C109.624 19.888 109.404 19.548 109.26 19.164L110.1 18.732C110.308 19.228 110.608 19.604 111 19.86C111.392 20.108 111.836 20.232 112.332 20.232C112.78 20.232 113.176 20.128 113.52 19.92C113.864 19.704 114.132 19.408 114.324 19.032C114.524 18.656 114.624 18.232 114.624 17.76C114.624 17.04 114.416 16.456 114 16.008C113.592 15.56 113.036 15.336 112.332 15.336C111.836 15.336 111.392 15.464 111 15.72C110.608 15.968 110.308 16.34 110.1 16.836L109.26 16.404C109.404 16.012 109.624 15.672 109.92 15.384C110.216 15.088 110.568 14.86 110.976 14.7C111.384 14.532 111.828 14.448 112.308 14.448C112.948 14.448 113.512 14.576 114 14.832C114.488 15.088 114.876 15.432 115.164 15.864C115.5 15.4 115.924 15.048 116.436 14.808C116.948 14.568 117.524 14.448 118.164 14.448C118.852 14.448 119.444 14.596 119.94 14.892C120.436 15.188 120.816 15.588 121.08 16.092C121.352 16.588 121.488 17.152 121.488 17.784C121.488 18.456 121.352 19.044 121.08 19.548C120.808 20.044 120.432 20.428 119.952 20.7C119.48 20.972 118.928 21.108 118.296 21.108C117.832 21.108 117.464 21.076 117.192 21.012C116.928 20.956 116.7 20.888 116.508 20.808L116.892 20.016C117.252 20.16 117.692 20.232 118.212 20.232C118.876 20.232 119.404 20.012 119.796 19.572C120.196 19.132 120.396 18.544 120.396 17.808C120.396 17.072 120.196 16.48 119.796 16.032C119.396 15.576 118.856 15.348 118.176 15.348C117.568 15.348 117.052 15.476 116.628 15.732C116.212 15.988 115.872 16.372 115.608 16.884C115.68 17.164 115.716 17.46 115.716 17.772C115.716 18.412 115.58 18.988 115.308 19.5C115.036 20.004 114.644 20.4 114.132 20.688C113.628 20.976 113.02 21.12 112.308 21.12ZM123.9 21.12C123.54 21.12 123.228 21.096 122.964 21.048C122.708 21 122.468 20.92 122.244 20.808L122.628 20.016C122.932 20.16 123.3 20.232 123.732 20.232C124.396 20.232 124.916 20.008 125.292 19.56C125.668 19.104 125.856 18.5 125.856 17.748C125.856 17.276 125.76 16.86 125.568 16.5C125.376 16.132 125.1 15.844 124.74 15.636C124.388 15.428 123.972 15.324 123.492 15.324C123.028 15.324 122.572 15.44 122.124 15.672C121.668 15.896 121.224 16.26 120.792 16.764L120.168 16.104C120.6 15.6 121.08 15.2 121.608 14.904C122.136 14.6 122.76 14.448 123.48 14.448C124.152 14.448 124.748 14.596 125.268 14.892C125.796 15.18 126.208 15.572 126.504 16.068C126.808 16.564 126.96 17.128 126.96 17.76C126.96 18.408 126.824 18.988 126.552 19.5C126.28 20.004 125.912 20.4 125.448 20.688C124.992 20.976 124.476 21.12 123.9 21.12ZM131.269 21.12C130.557 21.12 129.925 20.94 129.373 20.58C128.821 20.22 128.433 19.748 128.209 19.164L129.049 18.732C129.265 19.228 129.565 19.604 129.949 19.86C130.333 20.108 130.777 20.232 131.281 20.232C131.753 20.232 132.161 20.124 132.505 19.908C132.849 19.684 133.113 19.388 133.297 19.02C133.489 18.644 133.585 18.224 133.585 17.76C133.585 17.272 133.489 16.848 133.297 16.488C133.105 16.128 132.837 15.848 132.493 15.648C132.149 15.44 131.745 15.336 131.281 15.336C130.777 15.336 130.333 15.464 129.949 15.72C129.565 15.968 129.265 16.34 129.049 16.836L128.209 16.404C128.433 15.812 128.821 15.34 129.373 14.988C129.925 14.628 130.553 14.448 131.257 14.448C131.961 14.448 132.565 14.592 133.069 14.88C133.581 15.168 133.977 15.56 134.257 16.056C134.537 16.544 134.677 17.1 134.677 17.724C134.677 18.044 134.641 18.352 134.569 18.648C134.849 19.096 135.185 19.472 135.577 19.776C135.969 20.072 136.457 20.22 137.041 20.22C137.521 20.22 137.937 20.116 138.289 19.908C138.641 19.7 138.909 19.412 139.093 19.044C139.285 18.668 139.381 18.24 139.381 17.76C139.381 17.024 139.173 16.436 138.757 15.996C138.341 15.556 137.785 15.336 137.089 15.336C136.617 15.336 136.217 15.408 135.889 15.552L135.505 14.76C135.737 14.648 135.993 14.568 136.273 14.52C136.553 14.472 136.881 14.448 137.257 14.448C137.881 14.448 138.433 14.588 138.913 14.868C139.401 15.14 139.781 15.524 140.053 16.02C140.333 16.516 140.473 17.104 140.473 17.784C140.473 18.44 140.325 19.02 140.029 19.524C139.733 20.02 139.325 20.412 138.805 20.7C138.285 20.98 137.685 21.12 137.005 21.12C136.397 21.12 135.845 21 135.349 20.76C134.853 20.52 134.441 20.164 134.113 19.692C133.841 20.116 133.465 20.46 132.985 20.724C132.505 20.988 131.933 21.12 131.269 21.12ZM142.885 21.12C142.525 21.12 142.213 21.096 141.949 21.048C141.693 21 141.453 20.92 141.229 20.808L141.613 20.016C141.917 20.16 142.285 20.232 142.717 20.232C143.381 20.232 143.901 20.008 144.277 19.56C144.653 19.104 144.841 18.5 144.841 17.748C144.841 17.276 144.745 16.86 144.553 16.5C144.361 16.132 144.085 15.844 143.725 15.636C143.373 15.428 142.957 15.324 142.477 15.324C142.013 15.324 141.557 15.44 141.109 15.672C140.653 15.896 140.209 16.26 139.777 16.764L139.153 16.104C139.585 15.6 140.065 15.2 140.593 14.904C141.121 14.6 141.745 14.448 142.465 14.448C143.137 14.448 143.733 14.596 144.253 14.892C144.781 15.18 145.193 15.572 145.489 16.068C145.793 16.564 145.945 17.128 145.945 17.76C145.945 18.408 145.809 18.988 145.537 19.5C145.265 20.004 144.897 20.4 144.433 20.688C143.977 20.976 143.461 21.12 142.885 21.12Z" fill="white"/>
</svg>
